<?xml version="1.0" encoding="utf-8"?><svg xmlns="http://www.w3.org/2000/svg" xmlns:xlink="http://www.w3.org/1999/xlink"><symbol viewBox="0 0 19 19" id="Instagram" xmlns="http://www.w3.org/2000/svg"><path d="M9.19189 5.95703C8.32994 5.95703 7.50329 6.29944 6.8938 6.90893C6.2843 7.51843 5.94189 8.34508 5.94189 9.20703C5.94189 10.069 6.2843 10.8956 6.8938 11.5051C7.50329 12.1146 8.32994 12.457 9.19189 12.457C10.0538 12.457 10.8805 12.1146 11.49 11.5051C12.0995 10.8956 12.4419 10.069 12.4419 9.20703C12.4419 8.34508 12.0995 7.51843 11.49 6.90893C10.8805 6.29944 10.0538 5.95703 9.19189 5.95703Z"/><path fill-rule="evenodd" clip-rule="evenodd" d="M3.96201 0.288803C7.43805 -0.0962678 10.946 -0.0962678 14.422 0.288803C16.321 0.500803 17.852 1.9958 18.075 3.9018C18.487 7.42647 18.487 10.9871 18.075 14.5118C17.852 16.4178 16.321 17.9128 14.423 18.1258C10.9466 18.5109 7.43838 18.5109 3.96201 18.1258C2.06301 17.9128 0.532013 16.4178 0.309013 14.5128C-0.103004 10.9878 -0.103004 7.4268 0.309013 3.9018C0.532013 1.9958 2.06301 0.500803 3.96201 0.288803ZM14.192 3.2068C13.9268 3.2068 13.6724 3.31216 13.4849 3.4997C13.2974 3.68723 13.192 3.94159 13.192 4.2068C13.192 4.47202 13.2974 4.72637 13.4849 4.91391C13.6724 5.10145 13.9268 5.2068 14.192 5.2068C14.4572 5.2068 14.7116 5.10145 14.8991 4.91391C15.0867 4.72637 15.192 4.47202 15.192 4.2068C15.192 3.94159 15.0867 3.68723 14.8991 3.4997C14.7116 3.31216 14.4572 3.2068 14.192 3.2068ZM4.44201 9.2068C4.44201 7.94702 4.94246 6.73884 5.83326 5.84805C6.72405 4.95725 7.93223 4.4568 9.19201 4.4568C10.4518 4.4568 11.66 4.95725 12.5508 5.84805C13.4416 6.73884 13.942 7.94702 13.942 9.2068C13.942 10.4666 13.4416 11.6748 12.5508 12.5656C11.66 13.4564 10.4518 13.9568 9.19201 13.9568C7.93223 13.9568 6.72405 13.4564 5.83326 12.5656C4.94246 11.6748 4.44201 10.4666 4.44201 9.2068Z"/></symbol><symbol viewBox="0 0 19 19" id="arrow-big" xmlns="http://www.w3.org/2000/svg"><path d="M14.5033 2.63467H0.303999V0H19V18.696H16.3653V4.49667L1.862 19L0 17.138L14.5033 2.63467Z"/></symbol><symbol viewBox="0 0 14 8" id="arrow-mini" xmlns="http://www.w3.org/2000/svg"><path fill-rule="evenodd" clip-rule="evenodd" d="M6.07845 7.071L0.4293 1.414L1.84134 -4.94551e-07L6.78447 4.95L11.7276 -6.18079e-08L13.1396 1.414L7.49049 7.071C7.30323 7.25847 7.04927 7.36379 6.78447 7.36379C6.51968 7.36379 6.26572 7.25847 6.07845 7.071Z"/></symbol><symbol viewBox="0 0 10 11" id="arrow-slider" xmlns="http://www.w3.org/2000/svg"><path d="M3.64922 9.65039L7.79922 5.50039L3.64922 1.35039L4.34922 0.65039L9.19922 5.50039L4.34922 10.3504L3.64922 9.65039Z"/><path d="M8.5 5L8.5 6L-4.37114e-08 6L0 5L8.5 5Z"/></symbol><symbol viewBox="0 0 18 18" id="check" xmlns="http://www.w3.org/2000/svg"><path fill-rule="evenodd" clip-rule="evenodd" d="M9 18C10.1819 18 11.3522 17.7672 12.4442 17.3149C13.5361 16.8626 14.5282 16.1997 15.364 15.364C16.1997 14.5282 16.8626 13.5361 17.3149 12.4442C17.7672 11.3522 18 10.1819 18 9C18 7.8181 17.7672 6.64778 17.3149 5.55585C16.8626 4.46392 16.1997 3.47177 15.364 2.63604C14.5282 1.80031 13.5361 1.13738 12.4442 0.685084C11.3522 0.232792 10.1819 -1.76116e-08 9 0C6.61305 3.55683e-08 4.32387 0.948211 2.63604 2.63604C0.948212 4.32387 0 6.61305 0 9C0 11.3869 0.948212 13.6761 2.63604 15.364C4.32387 17.0518 6.61305 18 9 18ZM8.768 12.64L13.768 6.64L12.232 5.36L7.932 10.519L5.707 8.293L4.293 9.707L7.293 12.707L8.067 13.481L8.768 12.64Z"/></symbol><symbol viewBox="0 0 28 26" id="filter" xmlns="http://www.w3.org/2000/svg"><path d="M27 12.9993H9.63622M3.50724 12.9993H1M3.50724 12.9993C3.50724 12.2098 3.83003 11.4526 4.4046 10.8943C4.97918 10.336 5.75846 10.0224 6.57103 10.0224C7.38359 10.0224 8.16288 10.336 8.73745 10.8943C9.31202 11.4526 9.63481 12.2098 9.63481 12.9993C9.63481 13.7889 9.31202 14.5461 8.73745 15.1043C8.16288 15.6626 7.38359 15.9763 6.57103 15.9763C5.75846 15.9763 4.97918 15.6626 4.4046 15.1043C3.83003 14.5461 3.50724 13.7889 3.50724 12.9993ZM27 22.0217H18.9217M18.9217 22.0217C18.9217 22.8114 18.5982 23.5695 18.0235 24.1279C17.4488 24.6863 16.6693 25 15.8565 25C15.044 25 14.2647 24.685 13.6901 24.1267C13.1155 23.5684 12.7928 22.8112 12.7928 22.0217M18.9217 22.0217C18.9217 21.232 18.5982 20.4753 18.0235 19.9169C17.4488 19.3584 16.6693 19.0447 15.8565 19.0447C15.044 19.0447 14.2647 19.3584 13.6901 19.9167C13.1155 20.4749 12.7928 21.2321 12.7928 22.0217M12.7928 22.0217H1M27 3.97696H22.6362M16.5072 3.97696H1M16.5072 3.97696C16.5072 3.18742 16.83 2.43022 17.4046 1.87193C17.9792 1.31364 18.7585 1 19.571 1C19.9734 1 20.3718 1.077 20.7435 1.22661C21.1152 1.37621 21.453 1.59549 21.7374 1.87193C22.0219 2.14837 22.2476 2.47654 22.4016 2.83772C22.5556 3.19891 22.6348 3.58602 22.6348 3.97696C22.6348 4.3679 22.5556 4.75501 22.4016 5.11619C22.2476 5.47737 22.0219 5.80555 21.7374 6.08198C21.453 6.35842 21.1152 6.5777 20.7435 6.7273C20.3718 6.87691 19.9734 6.95391 19.571 6.95391C18.7585 6.95391 17.9792 6.64027 17.4046 6.08198C16.83 5.52369 16.5072 4.76649 16.5072 3.97696Z" stroke-width="1.5" stroke-miterlimit="10" stroke-linecap="round"/></symbol><symbol viewBox="0 0 49 49" id="message" xmlns="http://www.w3.org/2000/svg"><path d="M1.52588e-05 24.5C-0.00409698 27.7167 0.62664 30.9025 1.85607 33.875C3.0855 36.8475 4.88946 39.5481 7.16455 41.8221C9.44075 44.0988 12.1434 45.9046 15.1179 47.1362C18.0923 48.3679 21.2804 49.0012 24.4998 48.9999C27.9648 49.0076 31.3915 48.2762 34.5514 46.8545L44.7936 48.3696C45.3021 48.4526 45.8233 48.4102 46.3117 48.2461C46.8001 48.082 47.2411 47.8011 47.5964 47.4279C47.9516 47.0546 48.2103 46.6003 48.3501 46.1044C48.4899 45.6084 48.5064 45.0858 48.3984 44.582L46.9761 34.1914C48.329 31.1406 49.0187 27.8373 48.9996 24.5C49.0037 21.2833 48.373 18.0974 47.1436 15.1249C45.9141 12.1524 44.1102 9.45182 41.8351 7.17783C39.5589 4.9011 36.8563 3.09531 33.8818 1.86369C30.9073 0.632073 27.7192 -0.00122472 24.4998 1.77809e-06C17.9985 0.000434883 11.7632 2.58218 7.16455 7.17783C4.89064 9.45269 3.08744 12.1535 1.85809 15.1258C0.628742 18.098 -0.00265121 21.2835 1.52588e-05 24.5Z"/></symbol><symbol viewBox="0 0 20 20" id="phone" xmlns="http://www.w3.org/2000/svg"><path d="M4.02222 8.65556C5.62222 11.8 8.2 14.3667 11.3444 15.9778L13.7889 13.5333C14.0889 13.2333 14.5333 13.1333 14.9222 13.2667C16.1667 13.6778 17.5111 13.9 18.8889 13.9C19.5 13.9 20 14.4 20 15.0111V18.8889C20 19.5 19.5 20 18.8889 20C8.45556 20 0 11.5444 0 1.11111C0 0.5 0.5 0 1.11111 0H5C5.61111 0 6.11111 0.5 6.11111 1.11111C6.11111 2.5 6.33333 3.83333 6.74444 5.07778C6.86667 5.46667 6.77778 5.9 6.46667 6.21111L4.02222 8.65556Z"/></symbol><symbol viewBox="0 0 15 14" id="plus" xmlns="http://www.w3.org/2000/svg"><path d="M14.5459 8H8.55011V14H6.5515V8H0.555664V6H6.5515V0H8.55011V6H14.5459V8Z"/></symbol><symbol viewBox="0 0 18 17" id="star" xmlns="http://www.w3.org/2000/svg"><path d="M9.39763 13.7L5.25339 16.2C5.07031 16.3167 4.87891 16.3667 4.67919 16.35C4.47947 16.3333 4.30471 16.2667 4.15492 16.15C4.00512 16.0333 3.88862 15.8877 3.8054 15.713C3.72218 15.5383 3.70554 15.3423 3.75547 15.125L4.85395 10.4L1.18404 7.225C1.01761 7.075 0.913751 6.904 0.872475 6.712C0.831199 6.52 0.843516 6.33267 0.909424 6.15C0.975333 5.96733 1.07519 5.81733 1.20901 5.7C1.34282 5.58267 1.5259 5.50767 1.75824 5.475L6.60152 5.05L8.47392 0.6C8.55713 0.4 8.68629 0.25 8.86138 0.15C9.03647 0.0499999 9.21522 0 9.39763 0C9.58005 0 9.7588 0.0499999 9.93389 0.15C10.109 0.25 10.2381 0.4 10.3214 0.6L12.1938 5.05L17.037 5.475C17.27 5.50833 17.4531 5.58333 17.5863 5.7C17.7194 5.81667 17.8193 5.96667 17.8858 6.15C17.9524 6.33333 17.9651 6.521 17.9238 6.713C17.8825 6.905 17.7783 7.07567 17.6112 7.225L13.9413 10.4L15.0398 15.125C15.0897 15.3417 15.0731 15.5377 14.9899 15.713C14.9066 15.8883 14.7901 16.034 14.6404 16.15C14.4906 16.266 14.3158 16.3327 14.1161 16.35C13.9164 16.3673 13.725 16.3173 13.5419 16.2L9.39763 13.7Z"/></symbol><symbol viewBox="0 0 20 20" id="telegram" xmlns="http://www.w3.org/2000/svg"><path d="M10 0C4.48 0 0 4.48 0 10C0 15.52 4.48 20 10 20C15.52 20 20 15.52 20 10C20 4.48 15.52 0 10 0ZM14.64 6.8C14.49 8.38 13.84 12.22 13.51 13.99C13.37 14.74 13.09 14.99 12.83 15.02C12.25 15.07 11.81 14.64 11.25 14.27C10.37 13.69 9.87 13.33 9.02 12.77C8.03 12.12 8.67 11.76 9.24 11.18C9.39 11.03 11.95 8.7 12 8.49C12.0069 8.45819 12.006 8.42517 11.9973 8.3938C11.9886 8.36244 11.9724 8.33367 11.95 8.31C11.89 8.26 11.81 8.28 11.74 8.29C11.65 8.31 10.25 9.24 7.52 11.08C7.12 11.35 6.76 11.49 6.44 11.48C6.08 11.47 5.4 11.28 4.89 11.11C4.26 10.91 3.77 10.8 3.81 10.45C3.83 10.27 4.08 10.09 4.55 9.9C7.47 8.63 9.41 7.79 10.38 7.39C13.16 6.23 13.73 6.03 14.11 6.03C14.19 6.03 14.38 6.05 14.5 6.15C14.6 6.23 14.63 6.34 14.64 6.42C14.63 6.48 14.65 6.66 14.64 6.8Z"/></symbol><symbol viewBox="0 0 20 20" id="whatsapp" xmlns="http://www.w3.org/2000/svg"><path d="M10 0C15.523 0 20 4.477 20 10C20 15.523 15.523 20 10 20C8.23277 20.003 6.4966 19.5353 4.97002 18.645L0.00401546 20L1.35602 15.032C0.464974 13.5049 -0.00308163 11.768 1.52687e-05 10C1.52687e-05 4.477 4.47702 0 10 0ZM6.59202 5.3L6.39201 5.308C6.26271 5.31691 6.13636 5.35087 6.02002 5.408C5.91159 5.46951 5.81258 5.5463 5.72602 5.636C5.60602 5.749 5.53802 5.847 5.46502 5.942C5.09514 6.4229 4.89599 7.01331 4.89902 7.62C4.90102 8.11 5.02902 8.587 5.22902 9.033C5.63802 9.935 6.31102 10.89 7.19902 11.775C7.41302 11.988 7.62302 12.202 7.84902 12.401C8.95245 13.3724 10.2673 14.073 11.689 14.447L12.257 14.534C12.442 14.544 12.627 14.53 12.813 14.521C13.1042 14.5056 13.3885 14.4268 13.646 14.29C13.7769 14.2223 13.9047 14.1489 14.029 14.07C14.029 14.07 14.0714 14.0413 14.154 13.98C14.289 13.88 14.372 13.809 14.484 13.692C14.568 13.6053 14.638 13.5047 14.694 13.39C14.772 13.227 14.85 12.916 14.882 12.657C14.906 12.459 14.899 12.351 14.896 12.284C14.892 12.177 14.803 12.066 14.706 12.019L14.124 11.758C14.124 11.758 13.254 11.379 12.722 11.137C12.6663 11.1128 12.6067 11.0989 12.546 11.096C12.4776 11.0888 12.4084 11.0965 12.3432 11.1184C12.278 11.1403 12.2182 11.176 12.168 11.223C12.163 11.221 12.096 11.278 11.373 12.154C11.3315 12.2098 11.2744 12.2519 11.2088 12.2751C11.1433 12.2982 11.0723 12.3013 11.005 12.284C10.9398 12.2666 10.876 12.2446 10.814 12.218C10.69 12.166 10.647 12.146 10.562 12.11C9.98789 11.8599 9.45646 11.5215 8.98702 11.107C8.86102 10.997 8.74402 10.877 8.62402 10.761C8.23063 10.3842 7.88777 9.95799 7.60401 9.493L7.54501 9.398C7.50328 9.3338 7.46905 9.26501 7.44302 9.193C7.40502 9.046 7.50402 8.928 7.50402 8.928C7.50402 8.928 7.74702 8.662 7.86002 8.518C7.97002 8.378 8.06301 8.242 8.12302 8.145C8.24102 7.955 8.27802 7.76 8.21602 7.609C7.93602 6.925 7.64668 6.24467 7.34802 5.568C7.28902 5.434 7.11402 5.338 6.95502 5.319C6.90102 5.31233 6.84701 5.307 6.79302 5.303C6.65874 5.2953 6.52411 5.29664 6.39002 5.307L6.59202 5.3Z"/></symbol></svg>