<?xml version="1.0" encoding="utf-8"?><svg viewBox="0 0 49 49" xmlns="http://www.w3.org/2000/svg" xmlns:xlink="http://www.w3.org/1999/xlink"><style>:root>svg{display:none}:root>svg:target{display:block}</style><svg fill="none" viewBox="0 0 19 19" id="Instagram" xmlns="http://www.w3.org/2000/svg"><path d="M9.192 5.957a3.25 3.25 0 1 0 0 6.5 3.25 3.25 0 0 0 0-6.5Z" fill="#000"/><path fill-rule="evenodd" clip-rule="evenodd" d="M3.962.289a47.5 47.5 0 0 1 10.46 0c1.899.212 3.43 1.707 3.653 3.613a45.693 45.693 0 0 1 0 10.61c-.223 1.906-1.754 3.4-3.652 3.614a47.505 47.505 0 0 1-10.461 0c-1.899-.213-3.43-1.708-3.653-3.613a45.7 45.7 0 0 1 0-10.611C.532 1.996 2.063.5 3.962.289Zm10.23 2.918a1 1 0 1 0 0 2 1 1 0 0 0 0-2Zm-9.75 6a4.75 4.75 0 1 1 9.5 0 4.75 4.75 0 0 1-9.5 0Z" fill="#000"/></svg><svg fill="none" viewBox="0 0 19 19" id="arrow-big" xmlns="http://www.w3.org/2000/svg"><path d="M14.503 2.635H.304V0H19v18.696h-2.635v-14.2L1.862 19 0 17.138 14.503 2.635Z" fill="#000"/></svg><svg fill="none" viewBox="0 0 14 8" id="arrow-mini" xmlns="http://www.w3.org/2000/svg"><path fill-rule="evenodd" clip-rule="evenodd" d="M6.078 7.071.43 1.414 1.841 0l4.943 4.95L11.728 0l1.412 1.414-5.65 5.657a.998.998 0 0 1-1.412 0Z" fill="#000"/></svg><svg fill="none" viewBox="0 0 10 11" id="arrow-slider" xmlns="http://www.w3.org/2000/svg"><path d="M3.65 9.65 7.8 5.5 3.65 1.35l.7-.7L9.2 5.5l-4.85 4.85-.7-.7Z" fill="#000"/><path d="M8.5 5v1H0V5h8.5Z" fill="#000"/></svg><svg fill="none" viewBox="0 0 18 18" id="check" xmlns="http://www.w3.org/2000/svg"><path fill-rule="evenodd" clip-rule="evenodd" d="M9 18A9 9 0 1 0 9 0a9 9 0 0 0 0 18Zm-.232-5.36 5-6-1.536-1.28-4.3 5.159-2.225-2.226-1.414 1.414 3 3 .774.774.701-.841Z" fill="#000"/></svg><svg fill="none" viewBox="0 0 28 26" id="filter" xmlns="http://www.w3.org/2000/svg"><path d="M27 13H9.636m-6.129 0H1m2.507 0c0-.79.323-1.547.898-2.106a3.11 3.11 0 0 1 2.166-.872 3.11 3.11 0 0 1 2.166.872c.575.559.898 1.316.898 2.105 0 .79-.323 1.547-.898 2.105a3.11 3.11 0 0 1-2.166.872 3.11 3.11 0 0 1-2.166-.872A2.935 2.935 0 0 1 3.507 13ZM27 22.021h-8.078m0 0c0 .79-.324 1.548-.899 2.106a3.11 3.11 0 0 1-2.166.872 3.111 3.111 0 0 1-2.167-.873 2.935 2.935 0 0 1-.897-2.105m6.129 0c0-.79-.324-1.547-.899-2.105a3.11 3.11 0 0 0-2.166-.872 3.11 3.11 0 0 0-2.167.872 2.934 2.934 0 0 0-.897 2.105m0 0H1M27 3.977h-4.364m-6.129 0H1m15.507 0c0-.79.323-1.547.898-2.105A3.11 3.11 0 0 1 19.57 1c.402 0 .8.077 1.172.227.372.15.71.368.994.645.285.276.51.605.665.966a2.903 2.903 0 0 1 0 2.278c-.154.361-.38.69-.665.966a3.07 3.07 0 0 1-.993.645c-.372.15-.77.227-1.173.227a3.11 3.11 0 0 1-2.166-.872 2.935 2.935 0 0 1-.898-2.105Z" stroke="#000" stroke-width="1.5" stroke-miterlimit="10" stroke-linecap="round"/></svg><svg fill="none" viewBox="0 0 49 49" id="message" xmlns="http://www.w3.org/2000/svg"><path d="M0 24.5a24.447 24.447 0 0 0 7.165 17.322A24.5 24.5 0 0 0 24.5 49a24.366 24.366 0 0 0 10.051-2.145l10.243 1.515a3.166 3.166 0 0 0 3.604-3.788l-1.422-10.39A23.574 23.574 0 0 0 49 24.5a24.448 24.448 0 0 0-7.165-17.322A24.5 24.5 0 0 0 24.5 0 24.526 24.526 0 0 0 7.165 7.178 24.474 24.474 0 0 0 0 24.5Z" fill="#fff"/></svg><svg fill="none" viewBox="0 0 20 20" id="phone" xmlns="http://www.w3.org/2000/svg"><path d="M4.022 8.656a16.832 16.832 0 0 0 7.322 7.322l2.445-2.445c.3-.3.744-.4 1.133-.266 1.245.41 2.59.633 3.967.633.611 0 1.111.5 1.111 1.111v3.878C20 19.5 19.5 20 18.889 20 8.456 20 0 11.544 0 1.111 0 .5.5 0 1.111 0H5c.611 0 1.111.5 1.111 1.111 0 1.389.222 2.722.633 3.967.123.389.034.822-.277 1.133L4.022 8.656Z" fill="#fff"/></svg><svg fill="none" viewBox="0 0 15 14" id="plus" xmlns="http://www.w3.org/2000/svg"><path d="M14.546 8H8.55v6H6.551V8H.556V6H6.55V0h2v6h5.995v2Z" fill="#000"/></svg><svg fill="none" viewBox="0 0 18 17" id="star" xmlns="http://www.w3.org/2000/svg"><path d="m9.398 13.7-4.145 2.5a.905.905 0 0 1-.574.15.964.964 0 0 1-.524-.2 1.2 1.2 0 0 1-.35-.437.876.876 0 0 1-.05-.588L4.854 10.4l-3.67-3.175a.955.955 0 0 1-.312-.513A1.003 1.003 0 0 1 .91 6.15c.066-.183.166-.333.3-.45.134-.117.317-.192.55-.225l4.843-.425L8.474.6c.083-.2.212-.35.387-.45.175-.1.354-.15.537-.15.182 0 .36.05.536.15.175.1.304.25.387.45l1.873 4.45 4.843.425c.233.033.416.108.55.225.132.117.232.267.299.45a1 1 0 0 1 .038.563.949.949 0 0 1-.313.512l-3.67 3.175 1.099 4.725a.877.877 0 0 1-.05.588 1.19 1.19 0 0 1-.35.437.975.975 0 0 1-.524.2.898.898 0 0 1-.574-.15l-4.144-2.5Z" fill="#000"/></svg><svg fill="none" viewBox="0 0 20 20" id="telegram" xmlns="http://www.w3.org/2000/svg"><path d="M10 0C4.48 0 0 4.48 0 10s4.48 10 10 10 10-4.48 10-10S15.52 0 10 0Zm4.64 6.8c-.15 1.58-.8 5.42-1.13 7.19-.14.75-.42 1-.68 1.03-.58.05-1.02-.38-1.58-.75-.88-.58-1.38-.94-2.23-1.5-.99-.65-.35-1.01.22-1.59.15-.15 2.71-2.48 2.76-2.69a.2.2 0 0 0-.05-.18c-.06-.05-.14-.03-.21-.02-.09.02-1.49.95-4.22 2.79-.4.27-.76.41-1.08.4-.36-.01-1.04-.2-1.55-.37-.63-.2-1.12-.31-1.08-.66.02-.18.27-.36.74-.55 2.92-1.27 4.86-2.11 5.83-2.51 2.78-1.16 3.35-1.36 3.73-1.36.08 0 .27.02.39.12.1.08.13.19.14.27-.01.06.01.24 0 .38Z" fill="#fff"/></svg><svg fill="none" viewBox="0 0 20 20" id="whatsapp" xmlns="http://www.w3.org/2000/svg"><path d="M10 0c5.523 0 10 4.477 10 10s-4.477 10-10 10a9.95 9.95 0 0 1-5.03-1.355L.004 20l1.352-4.968A9.95 9.95 0 0 1 0 10C0 4.477 4.477 0 10 0ZM6.592 5.3l-.2.008a1 1 0 0 0-.372.1 1.3 1.3 0 0 0-.294.228c-.12.113-.188.211-.261.306a2.73 2.73 0 0 0-.566 1.678c.002.49.13.967.33 1.413.409.902 1.082 1.857 1.97 2.742.214.213.424.427.65.626a9.45 9.45 0 0 0 3.84 2.046l.568.087c.185.01.37-.004.556-.013a2 2 0 0 0 .833-.231c.13-.068.259-.141.383-.22 0 0 .042-.029.125-.09.135-.1.218-.171.33-.288.084-.087.154-.187.21-.302.078-.163.156-.474.188-.733.024-.198.017-.306.014-.373-.004-.107-.093-.218-.19-.265l-.582-.261s-.87-.379-1.402-.621a.502.502 0 0 0-.176-.041.48.48 0 0 0-.378.127c-.005-.002-.072.055-.795.931a.35.35 0 0 1-.368.13 1.4 1.4 0 0 1-.191-.066c-.124-.052-.167-.072-.252-.108a6 6 0 0 1-1.575-1.003c-.126-.11-.243-.23-.363-.346a6.3 6.3 0 0 1-1.02-1.268l-.059-.095a1 1 0 0 1-.102-.205c-.038-.147.061-.265.061-.265s.243-.266.356-.41c.11-.14.203-.276.263-.373.118-.19.155-.385.093-.536-.28-.684-.57-1.364-.868-2.041-.059-.134-.234-.23-.393-.249a3.001 3.001 0 0 0-.565-.012l.202-.007Z" fill="#fff"/></svg></svg>