<svg width="49" height="49" viewBox="0 0 49 49" fill="none" xmlns="http://www.w3.org/2000/svg">
<path d="M1.52588e-05 24.5C-0.00409698 27.7167 0.62664 30.9025 1.85607 33.875C3.0855 36.8475 4.88946 39.5481 7.16455 41.8221C9.44075 44.0988 12.1434 45.9046 15.1179 47.1362C18.0923 48.3679 21.2804 49.0012 24.4998 48.9999C27.9648 49.0076 31.3915 48.2762 34.5514 46.8545L44.7936 48.3696C45.3021 48.4526 45.8233 48.4102 46.3117 48.2461C46.8001 48.082 47.2411 47.8011 47.5964 47.4279C47.9516 47.0546 48.2103 46.6003 48.3501 46.1044C48.4899 45.6084 48.5064 45.0858 48.3984 44.582L46.9761 34.1914C48.329 31.1406 49.0187 27.8373 48.9996 24.5C49.0037 21.2833 48.373 18.0974 47.1436 15.1249C45.9141 12.1524 44.1102 9.45182 41.8351 7.17783C39.5589 4.9011 36.8563 3.09531 33.8818 1.86369C30.9073 0.632073 27.7192 -0.00122472 24.4998 1.77809e-06C17.9985 0.000434883 11.7632 2.58218 7.16455 7.17783C4.89064 9.45269 3.08744 12.1535 1.85809 15.1258C0.628742 18.098 -0.00265121 21.2835 1.52588e-05 24.5Z" fill="white"/>
</svg>
