<svg width="18" height="17" viewBox="0 0 18 17" fill="none" xmlns="http://www.w3.org/2000/svg">
<path d="M9.39763 13.7L5.25339 16.2C5.07031 16.3167 4.87891 16.3667 4.67919 16.35C4.47947 16.3333 4.30471 16.2667 4.15492 16.15C4.00512 16.0333 3.88862 15.8877 3.8054 15.713C3.72218 15.5383 3.70554 15.3423 3.75547 15.125L4.85395 10.4L1.18404 7.225C1.01761 7.075 0.913751 6.904 0.872475 6.712C0.831199 6.52 0.843516 6.33267 0.909424 6.15C0.975333 5.96733 1.07519 5.81733 1.20901 5.7C1.34282 5.58267 1.5259 5.50767 1.75824 5.475L6.60152 5.05L8.47392 0.6C8.55713 0.4 8.68629 0.25 8.86138 0.15C9.03647 0.0499999 9.21522 0 9.39763 0C9.58005 0 9.7588 0.0499999 9.93389 0.15C10.109 0.25 10.2381 0.4 10.3214 0.6L12.1938 5.05L17.037 5.475C17.27 5.50833 17.4531 5.58333 17.5863 5.7C17.7194 5.81667 17.8193 5.96667 17.8858 6.15C17.9524 6.33333 17.9651 6.521 17.9238 6.713C17.8825 6.905 17.7783 7.07567 17.6112 7.225L13.9413 10.4L15.0398 15.125C15.0897 15.3417 15.0731 15.5377 14.9899 15.713C14.9066 15.8883 14.7901 16.034 14.6404 16.15C14.4906 16.266 14.3158 16.3327 14.1161 16.35C13.9164 16.3673 13.725 16.3173 13.5419 16.2L9.39763 13.7Z" fill="black"/>
</svg>
